<svg xmlns="http://www.w3.org/2000/svg"  viewBox="0 0 24 24" width="64px" height="64px"><path d="M5.117,14.558V6.416L4.343,7C3.721,7.469,2.829,7.286,2.442,6.61l0,0	C2.115,6.039,2.269,5.313,2.8,4.924l2.117-1.55C5.25,3.131,5.651,3,6.062,3h0C7.132,3,8,3.868,8,4.938v9.621	C8,15.355,7.355,16,6.558,16h0C5.762,16,5.117,15.355,5.117,14.558z" opacity=".35"/><path d="M14.848,11.777c0,2.251-1.536,3.498-4.279,6.742h2.877c0.685,0,1.24,0.555,1.24,1.24v0c0,0.685-0.555,1.24-1.24,1.24h-4.43	c-1.029,0-1.863-0.834-1.863-1.863v0c0-0.445,0.16-0.878,0.45-1.215c3.153-3.66,4.422-4.713,4.422-6.11	c0-0.37-0.077-1.348-1.078-1.348c-0.572,0-0.892,0.364-1.069,0.776c-0.225,0.521-0.773,0.825-1.338,0.773h0	c-0.897-0.084-1.49-1.024-1.116-1.845C7.928,9.057,8.954,8,11.036,8C14.086,8,14.848,10.283,14.848,11.777z"/><path d="M21,12.089C21,14.897,18.917,16,17.073,16c-1.739,0-2.784-0.72-3.387-1.562	c-0.521-0.726-0.119-1.753,0.747-1.974h0c0.536-0.137,1.078,0.099,1.396,0.551c0.218,0.31,0.565,0.572,1.121,0.572	c1.077,0,1.321-1.112,1.321-1.62c0-1.134-0.718-1.586-1.708-1.586h-0.021c-0.574,0-1.039-0.465-1.039-1.039v0	c0-0.574,0.465-1.039,1.039-1.039h0.092c0.47,0,1.462-0.164,1.462-1.569c0-0.351-0.143-1.321-1.146-1.321	c-0.432,0-0.712,0.21-0.896,0.463c-0.287,0.394-0.758,0.608-1.231,0.491l-0.16-0.04c-0.775-0.192-1.142-1.106-0.682-1.759	C14.532,3.784,15.497,3,17.144,3c2.081,0,3.61,1.36,3.61,3.383c0,1.712-0.925,2.62-1.708,2.835v0.053	C19.716,9.417,21,10.248,21,12.089z" opacity=".35"/></svg>